<svg width="250" height="250" viewBox="0 0 272 272" fill="none" xmlns="http://www.w3.org/2000/svg">
<path d="M56.2325 25.8494C38.1182 38.9673 23.5185 56.35 13.7267 76.458C3.935 96.5659 -0.746582 118.778 0.0967102 141.128C0.939972 163.477 7.28207 185.274 18.5612 204.587C29.8404 223.9 45.7084 240.133 64.7598 251.848C83.8112 263.564 105.458 270.4 127.782 271.751C150.107 273.103 172.42 268.928 192.745 259.596C213.071 250.264 230.781 236.064 244.308 218.252C257.834 200.441 266.759 179.569 270.292 157.484L242.284 153.003C239.488 170.482 232.424 187.001 221.719 201.098C211.013 215.194 196.997 226.433 180.91 233.819C164.824 241.204 147.165 244.508 129.496 243.439C111.828 242.369 94.6958 236.959 79.6178 227.687C64.5398 218.415 51.9812 205.567 43.0545 190.282C34.1277 174.997 29.1084 157.747 28.4409 140.058C27.7735 122.37 31.4787 104.79 39.2283 88.8762C46.9778 72.962 58.5326 59.2046 72.869 48.8226L56.2325 25.8494Z" fill="#EB4C4C"/>
<circle cx="136" cy="136" r="125" fill="#7FC7C3"/>
<path d="M192.344 183.692H79.6563C74.28 183.692 69.9062 179.318 69.9062 173.942V165.411C69.9062 164.634 70.536 164.004 71.3125 164.004H200.688C201.464 164.004 202.094 164.634 202.094 165.411V173.942C202.094 179.318 197.72 183.692 192.344 183.692ZM72.7188 166.817V173.942C72.7188 177.767 75.8308 180.879 79.6563 180.879H192.344C196.17 180.879 199.282 177.767 199.282 173.942V166.817H72.7188Z" fill="black"/>
<path d="M200.688 166.817H71.3125C70.536 166.817 69.9062 166.187 69.9062 165.411V102.551C69.9062 96.1154 75.1423 90.8793 81.5781 90.8793H130.516C131.293 90.8793 131.922 91.5091 131.922 92.2856C131.922 93.0621 131.293 93.6918 130.516 93.6918H81.5781C76.6931 93.6918 72.7188 97.6662 72.7188 102.551V164.004H199.281V102.551C199.281 97.6662 195.307 93.6918 190.422 93.6918H158.359C157.582 93.6918 156.952 93.0621 156.952 92.2856C156.952 91.5091 157.582 90.8793 158.359 90.8793H190.422C196.858 90.8793 202.094 96.1154 202.094 102.551V165.411C202.094 166.187 201.464 166.817 200.688 166.817Z" fill="black"/>
<path d="M113.924 124.205C113.557 124.205 113.197 124.061 112.93 123.793C112.564 123.428 112.428 122.891 112.577 122.395L118.543 102.508C118.61 102.285 118.731 102.082 118.896 101.918L151.71 69.1033C153.835 66.9784 156.66 65.8082 159.665 65.8082C162.67 65.8082 165.495 66.9784 167.62 69.1033C169.745 71.2281 170.915 74.0533 170.915 77.0582C170.915 80.0633 169.745 82.8882 167.62 85.0133L134.806 117.827C134.641 117.992 134.439 118.113 134.216 118.18L114.328 124.146C114.195 124.186 114.059 124.205 113.924 124.205ZM121.135 103.655L116.021 120.702L133.068 115.588L165.631 83.0243C167.225 81.4305 168.102 79.3118 168.102 77.0582C168.102 74.8045 167.225 72.6856 165.631 71.092C164.038 69.4982 161.919 68.6207 159.665 68.6207C157.411 68.6207 155.292 69.4984 153.699 71.092L121.135 103.655Z" fill="black"/>
<path d="M124.862 111.226C123.241 111.226 121.621 110.609 120.387 109.375C117.92 106.908 117.92 102.893 120.387 100.426C120.936 99.8768 121.827 99.8768 122.376 100.426C122.925 100.975 122.925 101.865 122.376 102.415C121.005 103.785 121.005 106.016 122.376 107.386C123.747 108.757 125.977 108.757 127.348 107.386C127.897 106.837 128.788 106.838 129.337 107.386C129.886 107.936 129.886 108.826 129.337 109.375C128.103 110.609 126.482 111.226 124.862 111.226Z" fill="black"/>
<path d="M131.823 118.189C130.132 118.189 128.543 117.531 127.348 116.336C126.153 115.141 125.495 113.551 125.495 111.861C125.495 110.171 126.153 108.581 127.348 107.386L144.85 89.8851C145.398 89.3361 146.289 89.3361 146.838 89.8851C147.387 90.4344 147.387 91.3248 146.838 91.8738L129.337 109.375C128.673 110.039 128.307 110.922 128.307 111.861C128.307 112.8 128.672 113.683 129.337 114.347C130.001 115.011 130.884 115.377 131.822 115.377C132.761 115.377 133.644 115.011 134.308 114.347C134.857 113.798 135.748 113.798 136.297 114.347C136.846 114.896 136.846 115.786 136.297 116.336C135.102 117.531 133.513 118.189 131.823 118.189Z" fill="black"/>
<path d="M162.648 89.4025C162.288 89.4025 161.928 89.2652 161.654 88.9907L147.733 75.0694C147.183 74.5201 147.183 73.6297 147.733 73.0807C148.281 72.5317 149.172 72.5317 149.721 73.0807L163.642 87.002C164.192 87.5513 164.192 88.4417 163.642 88.9907C163.368 89.2652 163.008 89.4025 162.648 89.4025Z" fill="black"/>
<path d="M166.937 152.754H144.437C139.785 152.754 136 148.969 136 144.317C136 139.664 139.785 135.879 144.437 135.879H175.375C178.477 135.879 181 133.356 181 130.254V129.83C181 126.729 178.477 124.205 175.375 124.205H113.924C113.148 124.205 112.518 123.575 112.518 122.799C112.518 122.022 113.148 121.393 113.924 121.393H175.375C180.027 121.393 183.812 125.178 183.812 129.83V130.254C183.812 134.907 180.027 138.692 175.375 138.692H144.437C141.336 138.692 138.812 141.215 138.812 144.317C138.812 147.418 141.336 149.942 144.437 149.942H166.937C167.714 149.942 168.344 150.571 168.344 151.348C168.344 152.125 167.714 152.754 166.937 152.754Z" fill="black"/>
<path d="M113.5 154.161H71.3125C70.536 154.161 69.9062 153.531 69.9062 152.754C69.9062 151.978 70.536 151.348 71.3125 151.348H113.5C114.277 151.348 114.906 151.978 114.906 152.754C114.906 153.531 114.277 154.161 113.5 154.161Z" fill="black"/>
<path d="M113.5 145.723H71.3125C70.536 145.723 69.9062 145.094 69.9062 144.317C69.9062 143.54 70.536 142.911 71.3125 142.911H113.5C114.277 142.911 114.906 143.54 114.906 144.317C114.906 145.094 114.277 145.723 113.5 145.723Z" fill="black"/>
<path d="M113.5 137.286H71.3125C70.536 137.286 69.9062 136.656 69.9062 135.879C69.9062 135.103 70.536 134.473 71.3125 134.473H113.5C114.277 134.473 114.906 135.103 114.906 135.879C114.906 136.656 114.277 137.286 113.5 137.286Z" fill="black"/>
<path d="M151.469 200.567H120.531C119.755 200.567 119.125 199.937 119.125 199.161V182.286C119.125 181.509 119.755 180.879 120.531 180.879H151.469C152.246 180.879 152.875 181.509 152.875 182.286V199.161C152.875 199.937 152.246 200.567 151.469 200.567ZM121.938 197.754H150.062V183.692H121.938V197.754Z" fill="black"/>
<path d="M144.438 200.567H127.562C126.786 200.567 126.156 199.937 126.156 199.161V182.286C126.156 181.509 126.786 180.879 127.562 180.879H144.438C145.214 180.879 145.844 181.509 145.844 182.286V199.161C145.844 199.937 145.214 200.567 144.438 200.567ZM128.969 197.754H143.031V183.692H128.969V197.754Z" fill="black"/>
<path d="M155.688 206.192H116.312C113.986 206.192 112.094 204.299 112.094 201.973C112.094 199.647 113.986 197.754 116.312 197.754H155.688C158.014 197.754 159.906 199.647 159.906 201.973C159.906 204.299 158.014 206.192 155.688 206.192ZM116.312 200.567C115.537 200.567 114.906 201.198 114.906 201.973C114.906 202.748 115.537 203.379 116.312 203.379H155.688C156.463 203.379 157.094 202.748 157.094 201.973C157.094 201.198 156.463 200.567 155.688 200.567H116.312Z" fill="black"/>
</svg>
