<svg width="20" height="17" viewBox="0 0 20 17" fill="none" xmlns="http://www.w3.org/2000/svg">
<path d="M20 2.37835C20 1.34096 19.1603 0.5 18.1245 0.5H2.67545C1.63966 0.5 0.799988 1.34096 0.799988 2.37835V14.6217C0.799988 15.659 1.63966 16.5 2.67545 16.5H18.1245C19.1603 16.5 20 15.659 20 14.6217V2.37835ZM2.68549 2.00107H18.1392C18.3461 2.00107 18.5126 2.16627 18.5126 2.37344V2.38974L10.6772 10.238C10.5816 10.3337 10.4705 10.348 10.4125 10.348C10.3544 10.348 10.2429 10.3337 10.1473 10.238L2.3101 2.38867V2.37344C2.3101 2.16627 2.47866 2.00107 2.68549 2.00107ZM18.1392 14.9989H2.68549C2.47866 14.9989 2.3101 14.8274 2.3101 14.6202V4.51377L9.0866 11.3006C9.44083 11.6554 9.91187 11.8507 10.4128 11.8507C10.9138 11.8507 11.3839 11.6553 11.7381 11.3005L18.5126 4.51483V14.6202C18.5126 14.8274 18.3461 14.9989 18.1392 14.9989Z" fill="#FBFBFB"/>
</svg>
