<svg width="250" height="250" viewBox="0 0 292 293" fill="none" xmlns="http://www.w3.org/2000/svg">
<path d="M66.2325 36.3494C48.1182 49.4673 33.5185 66.85 23.7267 86.958C13.935 107.066 9.25342 129.278 10.0967 151.628C10.94 173.977 17.2821 195.774 28.5612 215.087C39.8404 234.4 55.7084 250.633 74.7598 262.348C93.8112 274.064 115.458 280.9 137.782 282.251C160.107 283.603 182.42 279.428 202.745 270.096C223.071 260.764 240.781 246.564 254.308 228.752C267.834 210.941 276.759 190.069 280.292 167.984L252.284 163.503C249.488 180.982 242.424 197.501 231.719 211.598C221.013 225.694 206.997 236.933 190.91 244.319C174.824 251.704 157.165 255.008 139.496 253.939C121.828 252.869 104.696 247.459 89.6178 238.187C74.5398 228.915 61.9812 216.067 53.0545 200.782C44.1277 185.497 39.1084 168.247 38.4409 150.558C37.7735 132.87 41.4787 115.29 49.2283 99.3762C56.9778 83.462 68.5326 69.7046 82.869 59.3226L66.2325 36.3494Z" fill="#EB4C4C"/>
<circle cx="146" cy="146.5" r="125" fill="#7FC7C3"/>
<g clip-path="url(#clip0_21_356)">
<path d="M89 127.5H201V92.5H89V127.5ZM173 99.5H194V113.5H173V99.5ZM124 99.5H138V106.5H124V99.5ZM124 113.5H138V120.5H124V113.5ZM103 99.5H117V106.5H103V99.5ZM103 113.5H117V120.5H103V113.5Z" fill="black"/>
<path d="M89 169.5H138V190.5H89V204.5H201V190.5H152V169.5H201V134.5H89V169.5ZM173 141.5H194V155.5H173V141.5ZM124 141.5H138V148.5H124V141.5ZM124 155.5H138V162.5H124V155.5ZM103 141.5H117V148.5H103V141.5ZM103 155.5H117V162.5H103V155.5Z" fill="black"/>
</g>
<defs>
<clipPath id="clip0_21_356">
<rect width="112" height="112" fill="white" transform="translate(89 92.5)"/>
</clipPath>
</defs>
</svg>
